<svg width="15" height="20" viewBox="0 0 15 20" fill="none" xmlns="http://www.w3.org/2000/svg">
<path d="M7.03063 19.3477C11.7535 19.3477 14.9021 16.1544 14.9021 11.342C14.9021 3.33642 8.08612 0 3.35431 0C2.5135 0 1.97681 0.295179 1.97681 0.867648C1.97681 1.09127 2.0752 1.32383 2.26304 1.53851C3.32747 2.80868 4.39191 4.32035 4.4098 6.08248C4.4098 6.3061 4.39191 6.52078 4.3293 6.75334C3.83733 5.7068 2.91601 5.0091 2.09309 5.0091C1.72635 5.0091 1.4759 5.27745 1.4759 5.67996C1.4759 5.91253 1.53851 6.45816 1.53851 6.85174C1.53851 8.85538 0 10.0271 0 13.2562C0 16.9147 2.79973 19.3477 7.03063 19.3477ZM7.12008 18.0954C3.61371 18.0954 1.26122 16.1454 1.26122 13.2562C1.26122 10.3223 2.84445 9.32945 2.84445 7.0038C2.84445 6.88752 2.84445 6.78018 2.82656 6.67284C3.3722 7.13797 3.76577 7.8625 4.00728 8.89116C4.04306 9.079 4.1504 9.16845 4.28457 9.16845C5.0091 9.16845 5.5279 7.37054 5.5279 6.23454C5.5279 4.33824 4.76759 2.52244 3.51532 1.20755C9.63358 1.56534 13.5872 5.75152 13.5872 11.2973C13.5872 15.3583 10.9932 18.0954 7.12008 18.0954ZM7.23636 16.8342C9.36523 16.8342 10.4028 15.2688 10.4028 13.4977C10.4028 11.7535 9.38312 9.80353 7.4242 8.88221C7.3437 8.85538 7.29003 8.9001 7.29898 8.9806C7.45104 10.4476 7.22742 11.8072 6.75334 12.4512C6.52972 11.9324 6.26138 11.4852 5.84992 11.1184C5.7873 11.0647 5.73363 11.0916 5.71574 11.1721C5.57263 12.1829 4.45452 12.7464 4.45452 14.3207C4.45452 15.8234 5.56368 16.8342 7.23636 16.8342Z" fill="#212121"/>
</svg>
