<svg width="16" height="17" viewBox="0 0 16 17" fill="none" xmlns="http://www.w3.org/2000/svg">
<path d="M14.9517 7.92167L8.40754 1.37786C8.03092 1.001 7.41969 1.001 7.04248 1.37786L5.68382 2.73687L7.40758 4.46062C7.8083 4.32539 8.26756 4.4161 8.58683 4.73537C8.73898 4.88766 8.84521 5.07969 8.89335 5.28952C8.9415 5.49934 8.92962 5.71847 8.85908 5.92186L10.5204 7.5834C10.9223 7.44484 11.3862 7.53436 11.707 7.85589C12.1558 8.30434 12.1558 9.03134 11.707 9.48003C11.6003 9.58674 11.4737 9.67138 11.3343 9.72914C11.1949 9.78689 11.0456 9.81662 10.8947 9.81662C10.7438 9.81662 10.5944 9.78689 10.455 9.72914C10.3157 9.67138 10.189 9.58674 10.0824 9.48003C9.92214 9.31969 9.81291 9.11553 9.76843 8.89325C9.72396 8.67097 9.74623 8.4405 9.83245 8.23085L8.28323 6.68151L8.28299 10.7589C8.39539 10.8142 8.49802 10.8876 8.58683 10.9759C9.03552 11.4244 9.03552 12.1512 8.58683 12.6006C8.13814 13.049 7.4109 13.049 6.96269 12.6006C6.51412 12.1513 6.47731 11.4245 6.92576 10.9759C7.03666 10.8652 7.14601 10.7815 7.26474 10.7254V6.61027C7.14601 6.55423 7.03678 6.47112 6.92564 6.35963C6.58595 6.02005 6.52243 5.52138 6.69673 5.10391L5.00681 3.4045L0.524192 7.89139C0.147217 8.26861 0.149592 8.87984 0.526567 9.25681L7.0718 15.8006C7.44854 16.1775 8.06025 16.1775 8.43758 15.8006L14.9512 9.28721C15.3282 8.91012 15.3286 8.29853 14.9517 7.92167Z" fill="black"/>
</svg>
