<svg width="18" height="18" viewBox="0 0 18 18" fill="none" xmlns="http://www.w3.org/2000/svg">
<path d="M4.34088 16.0634L3.27554 4.1145H14.9817L13.9153 16.0616L9.12146 17.3905L4.34088 16.0634Z" fill="black"/>
<path d="M9.1286 16.3746L13.0021 15.3007L13.9136 5.09155H9.1286V16.3746Z" fill="black"/>
<path d="M9.1286 9.52322H7.18932L7.05554 8.02237H9.1286V6.55688H5.45389L5.48886 6.95014L5.84913 10.9886H9.1286V9.52322ZM9.1286 13.3291L9.12211 13.3308L7.49012 12.89L7.38575 11.7213H5.91457L6.11987 14.0223L9.12184 14.8557L9.1286 14.8538V13.3291Z" fill="white"/>
<path d="M4.36472 0.867188H5.10938V1.60311H5.79073V0.867188H6.53553V3.09535H5.79073V2.34923H5.10951V3.09535H4.36472V0.867188ZM7.51477 1.60616H6.85912V0.867188H8.91548V1.60616H8.25957V3.09535H7.51477V1.60616ZM9.24186 0.867188H10.0183L10.4961 1.65013L10.9733 0.867188H11.7502V3.09535H11.0083V1.99094L10.4961 2.78315H10.4831L9.97049 1.99094V3.09535H9.24172V0.867188H9.24186ZM12.1209 0.867188H12.8658V2.3589H13.9132V3.09548H12.1209V0.867188Z" fill="black"/>
<path d="M9.12354 9.52322V10.9886H10.9281L10.758 12.8892L9.12354 13.3304V14.8549L12.1279 14.0223L12.1499 13.7746L12.4943 9.91661L12.53 9.52322H12.135H9.12354ZM9.12354 6.55688V8.02237H12.6634L12.6927 7.69295L12.7596 6.95014L12.7947 6.55688H9.12354Z" fill="#D3D3D3"/>
</svg>
