<svg width="21" height="21" viewBox="0 0 21 21" fill="none" xmlns="http://www.w3.org/2000/svg">
<rect x="0.0623169" y="0.020752" width="20.1039" height="20.1039" rx="10.0519" fill="black"/>
<path d="M16.5301 11.5291C16.3861 10.6321 15.8012 9.8787 14.0686 9.17616C13.4668 8.89958 12.7958 8.70152 12.5959 8.24541C12.5249 7.97998 12.5154 7.83046 12.5604 7.66978C12.6893 7.14834 13.3118 6.98578 13.8051 7.1353C14.1228 7.24179 14.4236 7.48665 14.605 7.87726C15.4534 7.32786 15.4517 7.33147 16.0442 6.9539C15.8273 6.61763 15.7115 6.46245 15.5695 6.31858C15.0592 5.74861 14.3639 5.45506 13.2519 5.47752L12.6727 5.55244C12.1176 5.69269 11.5886 5.98404 11.2784 6.37465C10.3477 7.43074 10.6131 9.27904 11.7457 10.0397C12.8615 10.8771 14.5006 11.0677 14.7099 11.8508C14.9136 12.8095 14.0053 13.1198 13.1025 13.0096C12.4372 12.8712 12.0672 12.533 11.6672 11.9181C10.9309 12.3443 10.9309 12.3443 10.1738 12.7796C10.3533 13.1721 10.542 13.3498 10.8429 13.6898C12.2671 15.1344 15.8312 15.0635 16.4704 12.8768C16.4963 12.8018 16.6685 12.3011 16.5301 11.5291ZM9.16627 5.59327H7.32723L7.31969 10.3478C7.31969 11.359 7.37199 12.286 7.20755 12.5701C6.9385 13.1289 6.24131 13.0597 5.92357 12.9513C5.60018 12.7923 5.43574 12.5663 5.24522 12.2469C5.19292 12.1551 5.15365 12.0842 5.14046 12.0787L3.64523 12.9943C3.89386 13.5046 4.26013 13.9475 4.72927 14.2353C5.43008 14.6559 6.37198 14.7848 7.35707 14.5587C7.9982 14.3719 8.55137 13.9851 8.84099 13.3962C9.25972 12.6243 9.16988 11.6899 9.16611 10.6565C9.17553 8.97041 9.16627 7.28467 9.16627 5.59327Z" fill="#EEEEEE"/>
</svg>
