<svg width="17" height="16" viewBox="0 0 17 16" fill="none" xmlns="http://www.w3.org/2000/svg">
<path d="M8.39271 9.42413C9.20578 9.42413 9.86491 8.765 9.86491 7.95193C9.86491 7.13886 9.20578 6.47974 8.39271 6.47974C7.57964 6.47974 6.92052 7.13886 6.92052 7.95193C6.92052 8.765 7.57964 9.42413 8.39271 9.42413Z" fill="#5F5F5F"/>
<path d="M13.9845 5.52425C13.7004 5.42094 13.4034 5.31762 13.0934 5.22723C13.1709 4.91729 13.2355 4.60735 13.2872 4.31033C13.5584 2.60568 13.2613 1.40468 12.4348 0.939778C12.1895 0.797724 11.9183 0.733154 11.6083 0.733154C10.7044 0.733154 9.55501 1.40468 8.39275 2.5282C7.23049 1.40468 6.08115 0.733154 5.17717 0.733154C4.86723 0.733154 4.59604 0.797724 4.35067 0.939778C3.52418 1.4176 3.22716 2.6186 3.49835 4.31033C3.55001 4.60735 3.61458 4.91729 3.69206 5.22723C3.38212 5.31762 3.0851 5.40802 2.80099 5.52425C1.18675 6.14412 0.308594 6.99644 0.308594 7.95208C0.308594 8.90771 1.19966 9.76004 2.80099 10.3799C3.0851 10.4832 3.38212 10.5865 3.69206 10.6769C3.61458 10.9869 3.55001 11.2968 3.49835 11.5938C3.22716 13.2985 3.52418 14.4995 4.35067 14.9644C4.59604 15.1064 4.86723 15.171 5.17717 15.171C6.09406 15.171 7.24341 14.4995 8.39275 13.376C9.55501 14.4995 10.7044 15.171 11.6083 15.171C11.9183 15.171 12.1895 15.1064 12.4348 14.9644C13.2613 14.4866 13.5584 13.2856 13.2872 11.5938C13.2355 11.2968 13.1709 10.9869 13.0934 10.6769C13.4034 10.5865 13.7004 10.4961 13.9845 10.3799C15.5988 9.76004 16.4769 8.90771 16.4769 7.95208C16.4769 6.99644 15.5988 6.14412 13.9845 5.52425ZM12.0732 1.58548C12.6027 1.89541 12.7835 2.85105 12.564 4.20702C12.5252 4.47821 12.4607 4.76232 12.3832 5.05934C11.7117 4.90438 11.0014 4.80106 10.2524 4.73649C9.81329 4.11662 9.3613 3.56132 8.90931 3.05767C9.86495 2.11495 10.8335 1.46925 11.6213 1.46925C11.7891 1.46925 11.9441 1.50799 12.0732 1.58548ZM10.6269 9.24348C10.3944 9.65673 10.1232 10.07 9.83912 10.4832C9.3613 10.522 8.88349 10.5349 8.39275 10.5349C7.88911 10.5349 7.41129 10.522 6.94639 10.4832C6.66228 10.07 6.404 9.65673 6.17155 9.24348C5.92618 8.81732 5.69373 8.37824 5.48711 7.95208C5.69373 7.52592 5.92618 7.08684 6.17155 6.66068C6.404 6.24743 6.67519 5.83418 6.9593 5.42094C7.43712 5.38219 7.91494 5.36928 8.40567 5.36928C8.90931 5.36928 9.38713 5.38219 9.85204 5.42094C10.1361 5.83418 10.3944 6.24743 10.6269 6.66068C10.8722 7.08684 11.1047 7.52592 11.3113 7.95208C11.0918 8.37824 10.8722 8.8044 10.6269 9.24348ZM11.6987 8.81732C11.8924 9.26931 12.0474 9.70838 12.1895 10.1475C11.7504 10.2508 11.2855 10.3283 10.7948 10.3928C10.9497 10.1475 11.1176 9.88918 11.2597 9.61798C11.4146 9.34679 11.5567 9.0756 11.6987 8.81732ZM8.39275 12.317C8.08282 11.9812 7.7858 11.6197 7.50169 11.2451C7.79871 11.2581 8.09573 11.271 8.39275 11.271C8.68978 11.271 8.9868 11.2581 9.28382 11.2451C8.99971 11.6197 8.70269 11.9812 8.39275 12.317ZM5.99075 10.3799C5.50002 10.3153 5.03512 10.2379 4.59604 10.1345C4.73809 9.70838 4.89306 9.25639 5.08677 8.8044C5.22883 9.06268 5.37088 9.33388 5.52585 9.59216C5.68082 9.87626 5.83578 10.1216 5.99075 10.3799ZM5.08677 7.08684C4.89306 6.63485 4.73809 6.19578 4.59604 5.7567C5.03512 5.65339 5.50002 5.5759 5.99075 5.51133C5.83578 5.7567 5.6679 6.01498 5.52585 6.28617C5.37088 6.55737 5.22883 6.82856 5.08677 7.08684ZM8.39275 3.58715C8.70269 3.92291 8.99971 4.2845 9.28382 4.65901C8.9868 4.6461 8.68978 4.63318 8.39275 4.63318C8.09573 4.63318 7.79871 4.6461 7.50169 4.65901C7.7858 4.2845 8.08282 3.92291 8.39275 3.58715ZM11.2597 6.29909L10.7948 5.52425C11.2855 5.58882 11.7504 5.6663 12.1895 5.76961C12.0474 6.19578 11.8924 6.64777 11.6987 7.09976C11.5567 6.82856 11.4146 6.55737 11.2597 6.29909ZM4.22153 4.20702C4.002 2.85105 4.18279 1.89541 4.71227 1.58548C4.84141 1.50799 4.99637 1.46925 5.16426 1.46925C5.9391 1.46925 6.90764 2.10204 7.87619 3.05767C7.4242 3.54841 6.97221 4.11662 6.53314 4.73649C5.78413 4.80106 5.07386 4.91729 4.40233 5.05934C4.32485 4.76232 4.27319 4.47821 4.22153 4.20702ZM1.03178 7.95208C1.03178 7.34512 1.76788 6.69942 3.05927 6.2216C3.31755 6.11829 3.60166 6.02789 3.88577 5.95041C4.09239 6.59611 4.35067 7.28055 4.66061 7.96499C4.35067 8.64943 4.07948 9.32096 3.88577 9.96666C2.10364 9.4501 1.03178 8.67526 1.03178 7.95208ZM4.71227 14.3187C4.18279 14.0087 4.002 13.0531 4.22153 11.6971C4.26028 11.4259 4.32485 11.1418 4.40233 10.8448C5.07386 10.9998 5.78413 11.1031 6.53314 11.1677C6.97221 11.7875 7.4242 12.3428 7.87619 12.8465C6.92056 13.7892 5.95201 14.4349 5.16426 14.4349C4.99637 14.4349 4.84141 14.3962 4.71227 14.3187ZM12.564 11.6971C12.7835 13.0531 12.6027 14.0087 12.0732 14.3187C11.9441 14.3962 11.7891 14.4349 11.6213 14.4349C10.8464 14.4349 9.87786 13.8021 8.90931 12.8465C9.3613 12.3558 9.81329 11.7875 10.2524 11.1677C11.0014 11.1031 11.7117 10.9869 12.3832 10.8448C12.4607 11.1418 12.5123 11.4259 12.564 11.6971ZM13.7262 9.68256C13.468 9.78587 13.1838 9.87626 12.8997 9.95375C12.6931 9.30805 12.4348 8.62361 12.1249 7.93917C12.4348 7.25472 12.706 6.5832 12.8997 5.9375C14.6819 6.45406 15.7537 7.2289 15.7537 7.95208C15.7537 8.55904 15.0047 9.20474 13.7262 9.68256Z" fill="black"/>
</svg>
