<svg width="18" height="18" viewBox="0 0 18 18" fill="none" xmlns="http://www.w3.org/2000/svg">
<path d="M12.3449 1.64149H11.3919L12.383 2.71692V3.22889H10.3418V2.62942H11.3327L10.3418 1.55399V1.0415H12.3449V1.64149ZM9.93708 1.64149H8.98412L9.97515 2.71692V3.22889H7.93386V2.62942H8.92489L7.93386 1.55399V1.0415H9.93708V1.64149ZM7.55288 1.66601H6.52456V2.60438H7.55288V3.22889H5.79358V1.0415H7.55288V1.66601Z" fill="black"/>
<path d="M4.39232 15.9473L3.34735 4.22729H14.8292L13.7833 15.9454L9.08122 17.2491L4.39232 15.9473Z" fill="black"/>
<path d="M9.08844 16.2528L12.8877 15.1994L13.7816 5.18579H9.08844V16.2528Z" fill="black"/>
<path d="M9.08832 9.43179H10.9904L11.1219 7.9599H9.08832V6.52246H12.6927L12.6583 6.90808L12.3051 10.8691H9.08832V9.43179Z" fill="white"/>
<path d="M9.09695 13.1651L9.09063 13.1669L7.48981 12.7345L7.38734 11.5881H5.94461L6.14607 13.8451L9.09037 14.6624L9.09708 14.6605V13.1651H9.09695Z" fill="#D3D3D3"/>
<path d="M10.8682 10.8083L10.695 12.7334L9.09186 13.1661V14.6616L12.0386 13.8449L12.0603 13.602L12.3104 10.8083H10.8682Z" fill="white"/>
<path d="M9.09331 6.52246V7.95977H5.62129L5.59238 7.63674L5.52695 6.90808L5.49249 6.52246H9.09331ZM9.08827 9.43192V10.8694H7.50772L7.47894 10.5463L7.41337 9.81754L7.37892 9.43192H9.08827Z" fill="#D3D3D3"/>
</svg>
