<svg width="16" height="16" viewBox="0 0 16 16" fill="none" xmlns="http://www.w3.org/2000/svg">
<path fill-rule="evenodd" clip-rule="evenodd" d="M8.03584 0.998779C4.0859 0.998779 0.882904 4.20107 0.882904 8.15172C0.882904 11.3122 2.93244 13.9933 5.77452 14.9392C6.13188 15.0056 6.26313 14.7841 6.26313 14.5951C6.26313 14.4246 6.25649 13.8611 6.25341 13.2634C4.26346 13.6961 3.84355 12.4195 3.84355 12.4195C3.51817 11.5927 3.04935 11.3728 3.04935 11.3728C2.40024 10.9289 3.09827 10.9381 3.09827 10.9381C3.81643 10.9885 4.19476 11.6752 4.19476 11.6752C4.83273 12.7685 5.8681 12.4525 6.27627 12.2699C6.34047 11.8076 6.52585 11.4919 6.73041 11.3133C5.14164 11.1326 3.47139 10.5192 3.47139 7.77837C3.47139 6.99743 3.75093 6.35934 4.2085 5.8583C4.13411 5.67825 3.88928 4.95073 4.27767 3.96547C4.27767 3.96547 4.87821 3.77323 6.24512 4.69867C6.81581 4.54007 7.42784 4.46035 8.03584 4.45763C8.64349 4.46035 9.25587 4.53983 9.82763 4.69844C11.1929 3.77299 11.7927 3.96523 11.7927 3.96523C12.1821 4.95038 11.9372 5.67802 11.863 5.85806C12.3216 6.3591 12.5991 6.99719 12.5991 7.77813C12.5991 10.5255 10.9258 11.1303 9.33299 11.3075C9.58967 11.5294 9.81827 11.9649 9.81827 12.6321C9.81827 13.5892 9.80998 14.3594 9.80998 14.595C9.80998 14.7854 9.93886 15.0084 10.3013 14.9382C13.1417 13.9913 15.1889 11.311 15.1889 8.15172C15.1888 4.2013 11.9861 0.998898 8.03584 0.998898V0.998779Z" fill="black"/>
<path d="M3.59208 11.2688C3.57633 11.3043 3.52042 11.315 3.46949 11.2907C3.41737 11.2675 3.38835 11.219 3.40517 11.1834C3.42057 11.1467 3.4766 11.1366 3.52836 11.1611C3.58048 11.1845 3.61009 11.2334 3.59197 11.2689L3.59208 11.2688ZM3.88181 11.592C3.84782 11.6237 3.78113 11.609 3.73588 11.5589C3.68898 11.5091 3.68021 11.4424 3.71492 11.4103C3.75021 11.3788 3.81489 11.3938 3.86179 11.4435C3.90846 11.494 3.9177 11.5601 3.88193 11.5922L3.88181 11.592ZM4.16396 12.0039C4.12013 12.0344 4.04835 12.0059 4.00405 11.9423C3.96023 11.8786 3.96023 11.8022 4.00524 11.7717C4.04942 11.7412 4.12013 11.7688 4.16514 11.8318C4.20873 11.8963 4.20873 11.9727 4.16396 12.0038V12.0039ZM4.55022 12.402C4.51114 12.4452 4.42751 12.4336 4.36639 12.3748C4.30397 12.3171 4.28655 12.235 4.32576 12.1919C4.36556 12.1485 4.44954 12.1606 4.51102 12.2191C4.57344 12.2767 4.59227 12.3589 4.55046 12.4019L4.55022 12.402ZM5.08325 12.6331C5.06584 12.6891 4.98553 12.7146 4.90439 12.6907C4.82349 12.6661 4.77054 12.6006 4.78712 12.544C4.80371 12.4875 4.88461 12.4611 4.96622 12.4866C5.04712 12.511 5.10007 12.5761 5.08325 12.6331ZM5.66874 12.6759C5.67076 12.7348 5.60206 12.7836 5.51713 12.7848C5.43149 12.7868 5.3622 12.739 5.36137 12.6809C5.36137 12.6214 5.42865 12.5732 5.51417 12.5715C5.5991 12.57 5.66886 12.6173 5.66886 12.6757L5.66874 12.6759ZM6.21338 12.5832C6.22356 12.6407 6.16446 12.6998 6.08 12.7155C5.99709 12.7309 5.92009 12.6952 5.90943 12.6382C5.89925 12.5792 5.95942 12.5201 6.04233 12.5048C6.12691 12.4902 6.20271 12.5249 6.21338 12.5833V12.5832Z" fill="black"/>
</svg>
