<svg width="18" height="19" viewBox="0 0 18 19" fill="none" xmlns="http://www.w3.org/2000/svg">
<path d="M6.611 18.8724C8.1452 18.8724 9.38288 17.6347 9.38288 16.1005V13.3286H6.611C5.07679 13.3286 3.83911 14.5663 3.83911 16.1005C3.83911 17.6347 5.07679 18.8724 6.611 18.8724Z" fill="black"/>
<path d="M3.8391 9.5568C3.8391 8.02259 5.07678 6.78491 6.61098 6.78491H9.38287V12.3287H6.61098C5.07678 12.3287 3.8391 11.091 3.8391 9.5568Z" fill="black"/>
<path d="M3.83911 3.01285C3.83911 1.47865 5.07679 0.240967 6.611 0.240967H9.38288V5.78474H6.611C5.07679 5.78474 3.83911 4.54706 3.83911 3.01285Z" fill="black"/>
<path d="M10.3829 0.240967H13.1548C14.689 0.240967 15.9267 1.47865 15.9267 3.01285C15.9267 4.54706 14.689 5.78474 13.1548 5.78474H10.3829V0.240967Z" fill="black"/>
<path d="M14.9267 9.5568C14.9267 11.091 13.689 12.3287 12.1548 12.3287C10.6206 12.3287 9.3829 11.091 9.3829 9.5568C9.3829 8.02259 10.6206 6.78491 12.1548 6.78491C13.689 6.78491 14.9267 8.02259 14.9267 9.5568Z" fill="black"/>
</svg>
