<svg width="23" height="24" viewBox="0 0 23 24" fill="none" xmlns="http://www.w3.org/2000/svg">
<rect y="0.199951" width="23" height="23" rx="11.5" fill="white" fill-opacity="0.2"/>
<path opacity="0.4" d="M17.7499 15.1627C17.7499 16.9064 16.3499 18.3189 14.6062 18.3252H14.5999H8.40619C6.66869 18.3252 5.24994 16.9189 5.24994 15.1752V15.1689C5.24994 15.1689 5.25369 12.4027 5.25869 11.0114C5.25931 10.7502 5.55931 10.6039 5.76369 10.7664C7.24869 11.9446 9.90431 14.0927 9.93744 14.1208C10.3812 14.4764 10.9437 14.6771 11.5187 14.6771C12.0937 14.6771 12.6562 14.4764 13.0999 14.1139C13.1331 14.0921 15.7293 12.0083 17.2368 10.8108C17.4418 10.6477 17.7431 10.7939 17.7437 11.0546C17.7499 12.4352 17.7499 15.1627 17.7499 15.1627" fill="white"/>
<path d="M17.4225 8.74596C16.8812 7.72596 15.8162 7.07471 14.6437 7.07471H8.40624C7.23374 7.07471 6.16874 7.72596 5.62749 8.74596C5.50624 8.97408 5.56374 9.25846 5.76561 9.41971L10.4062 13.1316C10.7312 13.3941 11.125 13.5247 11.5187 13.5247C11.5212 13.5247 11.5231 13.5247 11.525 13.5247C11.5269 13.5247 11.5294 13.5247 11.5312 13.5247C11.925 13.5247 12.3187 13.3941 12.6437 13.1316L17.2844 9.41971C17.4862 9.25846 17.5437 8.97408 17.4225 8.74596" fill="white"/>
</svg>
