<svg width="63" height="63" viewBox="0 0 63 63" fill="none" xmlns="http://www.w3.org/2000/svg">
<g clip-path="url(#clip0_105_2435)">
<path d="M16.7604 6.43927C16.9474 6.70117 17.2467 6.77598 17.5834 6.58895C17.9576 6.40186 17.995 6.17743 17.8453 5.95293C17.6957 5.65363 17.4338 5.65363 16.91 5.7659C16.087 5.95293 15.6754 5.84071 15.4135 5.39176C15.0768 4.79318 15.3761 4.232 15.9747 3.8953C16.723 3.48377 17.2467 3.70824 17.5834 4.19459L16.9474 4.5313C16.7978 4.30683 16.5733 4.19459 16.2366 4.38165C15.9373 4.5313 15.8999 4.75577 16.0121 4.98023C16.1244 5.20471 16.3489 5.20471 16.8352 5.09247C17.7705 4.868 18.1446 5.09247 18.4065 5.54141C18.7058 6.06515 18.5935 6.66376 17.7705 7.1501C17.0971 7.52422 16.4611 7.44941 16.0496 6.81339L16.7604 6.43927Z" fill="black"/>
<path d="M23.5693 3.48361C23.6816 4.0822 23.4571 4.75561 22.5966 5.0549C21.5117 5.42901 20.8757 4.75561 20.539 3.7829C20.2023 2.8102 20.4641 1.87491 21.4369 1.53821C22.3721 1.23892 22.8959 1.68785 23.1204 2.21161L22.447 2.43609C22.2973 2.1742 22.0729 1.94974 21.6239 2.09938C21.0628 2.28644 21.0628 2.92243 21.2498 3.52102C21.4743 4.15702 21.811 4.68078 22.4095 4.45632C22.8585 4.30667 22.8959 3.93255 22.8585 3.67067L23.5693 3.48361Z" fill="black"/>
<path d="M26.8989 2.43601L27.086 3.89507L26.3752 3.96989L25.9263 0.415787L27.3853 0.228728C28.0587 0.153905 28.5825 0.415786 28.6573 1.05178C28.7321 1.53814 28.5076 1.80001 28.2083 1.94966C28.5825 2.02448 28.7321 2.28637 28.8069 2.7353V2.81013C28.8444 3.10942 28.9192 3.40871 28.9566 3.63318L28.2458 3.70801C28.1709 3.55836 28.1335 3.33389 28.0587 2.88495V2.77272C28.0213 2.36119 27.8343 2.24896 27.3853 2.28637L26.8989 2.43601ZM26.8241 1.87484L27.3479 1.80001C27.6846 1.76261 27.9465 1.61296 27.9091 1.23884C27.8717 0.902139 27.6098 0.827315 27.3105 0.864727L26.7119 0.939551L26.8241 1.87484Z" fill="black"/>
<path d="M34.718 1.94978C34.6432 2.9973 34.1194 3.78295 32.9597 3.70812C31.8373 3.6333 31.4258 2.77283 31.5006 1.72531C31.538 0.827426 32.0992 -0.0704497 33.259 0.00437377C34.3065 0.116609 34.7554 1.01449 34.718 1.94978ZM32.2488 1.80013C32.2114 2.51095 32.4359 3.10954 33.0345 3.14695C33.6705 3.18436 33.9323 2.6606 33.9697 1.91237C34.0072 1.23896 33.8201 0.640373 33.1841 0.602961C32.5855 0.602961 32.2862 1.12672 32.2488 1.80013Z" fill="black"/>
<path d="M37.9728 0.752441L38.6836 0.939501L37.9354 3.82019L39.5066 4.23172L39.2822 4.7929L37.1123 4.23172L37.9728 0.752441Z" fill="black"/>
<path d="M43.0608 2.32397L43.7342 2.62326L42.4996 5.35431L43.9587 5.99032L43.6594 6.51407L41.6017 5.57879L43.0608 2.32397Z" fill="black"/>
<path d="M50.8798 7.74852L50.1315 7.11256L50.5431 6.66357L52.5633 8.42195L52.1518 8.87088L51.4035 8.23486L49.4581 10.517L48.897 10.0306L50.8798 7.74852Z" fill="black"/>
<path d="M55.2569 14.1087C54.4339 14.7446 53.4986 14.8943 52.7878 13.9964C52.0769 13.1359 52.4511 12.2381 53.2741 11.602C53.9475 11.0409 54.995 10.8538 55.7059 11.7517C56.3417 12.5748 56.0052 13.51 55.2569 14.1087ZM53.723 12.2007C53.1619 12.6496 52.9 13.2107 53.2367 13.6597C53.6108 14.1461 54.172 13.9964 54.7706 13.51C55.2943 13.0985 55.5936 12.5748 55.1821 12.051C54.8454 11.602 54.2468 11.7517 53.723 12.2007Z" fill="black"/>
<path d="M58.3622 15.7173L58.9607 16.877C59.26 17.4756 59.26 18.149 58.5866 18.4857C57.9133 18.8225 57.3148 18.5231 56.9779 17.8497L56.7158 17.4008L55.4814 18.0368L55.1447 17.4008L58.3622 15.7173ZM57.2771 17.1015L57.5016 17.513C57.6889 17.8497 57.9133 17.9994 58.2874 17.8123C58.5867 17.6627 58.6238 17.3634 58.437 17.0267L58.2126 16.5777L57.2771 17.1015Z" fill="black"/>
<path d="M60.0829 25.9306L59.4844 26.0428L59.2228 24.696L59.8213 24.5837L60.0829 25.9306Z" fill="black"/>
<path d="M59.9332 32.6274C59.5969 32.6648 59.3724 32.8519 59.3347 33.226C59.2976 33.6375 59.4844 33.7872 59.7465 33.7872C60.0829 33.8246 60.2325 33.6375 60.3821 33.1138C60.6814 32.2907 60.9812 32.0288 61.5049 32.0662C62.1782 32.1036 62.4774 32.6648 62.4397 33.3382C62.3649 34.1987 61.9161 34.5354 61.3176 34.5354L61.3552 33.8246C61.6168 33.7872 61.8412 33.6749 61.8412 33.3008C61.8789 32.9641 61.7293 32.8145 61.4672 32.7771C61.2056 32.7771 61.1308 32.9267 60.9435 33.4131C60.6066 34.3109 60.2325 34.5354 59.7088 34.498C59.1103 34.4606 58.6614 34.049 58.6986 33.1138C58.7362 32.3281 59.1851 31.8418 59.8961 31.8418L59.9332 32.6274Z" fill="black"/>
<path d="M58.7734 39.9599C58.2125 39.698 57.7637 39.1742 57.9881 38.2763C58.2874 37.1914 59.1851 37.0044 60.1577 37.2662C61.1308 37.5281 61.8041 38.2389 61.542 39.249C61.3175 40.1843 60.6065 40.4088 60.0457 40.2966L60.2325 39.6231C60.5317 39.6231 60.831 39.5857 60.9812 39.0994C61.1308 38.5382 60.6065 38.1641 59.9709 38.0144C59.2976 37.8274 58.6985 37.8648 58.5489 38.4634C58.437 38.9124 58.6985 39.1368 58.9607 39.2864L58.7734 39.9599Z" fill="black"/>
<path d="M57.8385 43.3269L56.4914 42.6909L56.7906 42.0549L60.0458 43.5888L59.4096 44.8982C59.1103 45.4968 58.6238 45.7961 58.0253 45.5342C57.5764 45.3097 57.4645 44.973 57.5016 44.6737C57.24 44.9356 56.9031 44.9356 56.529 44.7485L56.4542 44.7111C56.1549 44.5615 55.893 44.4493 55.7059 44.4119L56.0052 43.7758C56.1549 43.7758 56.3794 43.8881 56.7906 44.0752L56.8654 44.1126C57.24 44.2996 57.4268 44.2248 57.6141 43.7758L57.8385 43.3269ZM58.3622 43.5513L58.1378 44.0377C57.9882 44.337 57.9505 44.6363 58.3245 44.8234C58.6238 44.973 58.8482 44.786 58.9607 44.5241L59.2229 43.9255L58.3622 43.5513Z" fill="black"/>
<path d="M53.985 50.1358C53.1619 49.5373 52.7878 48.6394 53.4612 47.7041C54.1346 46.8062 55.0699 46.9559 55.893 47.5545C56.6038 48.0782 57.0527 49.0135 56.3794 49.9488C55.7433 50.8093 54.7706 50.6971 53.985 50.1358ZM55.4441 48.153C54.8829 47.7415 54.2468 47.6293 53.9102 48.0782C53.5361 48.5646 53.8353 49.0884 54.4339 49.5373C54.9577 49.9488 55.5563 50.0984 55.9304 49.5747C56.3046 49.0884 56.0052 48.5646 55.4441 48.153Z" fill="black"/>
<path d="M53.2368 53.5403L52.713 54.0266L50.6928 51.8193L49.533 52.9043L49.1963 52.4179L50.8424 50.884L53.2368 53.5403Z" fill="black"/>
<path d="M49.1962 56.9447L48.5977 57.3564L46.9515 54.8498L45.6047 55.7102L45.3054 55.1865L47.176 53.9519L49.1962 56.9447Z" fill="black"/>
<path d="M40.3671 60.611L41.3024 60.3495L41.4894 60.9103L38.908 61.6584L38.7209 61.0976L39.6563 60.8355L38.7958 57.9926L39.5066 57.7676L40.3671 60.611Z" fill="black"/>
<path d="M32.6603 60.7985C32.5481 59.7882 32.9596 58.8905 34.082 58.778C35.1669 58.666 35.7281 59.4513 35.8403 60.4992C35.9151 61.397 35.541 62.3695 34.4186 62.482C33.3338 62.594 32.7725 61.771 32.6603 60.7985ZM35.0921 60.574C35.0173 59.863 34.6805 59.3393 34.1194 59.3765C33.4834 59.4513 33.3338 59.9755 33.4086 60.7237C33.4834 61.397 33.7453 61.9207 34.3812 61.883C34.9799 61.8082 35.1669 61.2473 35.0921 60.574Z" fill="black"/>
<path d="M29.6299 62.5567L28.3205 62.4442C27.6471 62.3694 27.0859 61.9954 27.1608 61.2472C27.2356 60.4991 27.7967 60.1622 28.5824 60.237L29.1062 60.2747L29.2184 58.9275L29.9666 59.0023L29.6299 62.5567ZM29.0313 60.8732L28.545 60.8355C28.1709 60.7984 27.909 60.9103 27.8715 61.3221C27.8341 61.6961 28.0586 61.8457 28.4328 61.8834L28.9191 61.9206L29.0313 60.8732Z" fill="black"/>
<path d="M20.09 58.4788L20.3145 57.918L21.5865 58.404L21.3621 58.9653L20.09 58.4788Z" fill="black"/>
<path d="M14.5531 54.7374C14.7028 54.4381 14.6654 54.1388 14.366 53.9143C14.0293 53.6524 13.8049 53.7273 13.6552 53.9143C13.4682 54.1762 13.543 54.4007 13.8797 54.8122C14.4034 55.4856 14.4409 55.8971 14.1416 56.3089C13.73 56.8326 13.0941 56.8326 12.5703 56.4208C11.8969 55.8971 11.8595 55.336 12.1587 54.8497L12.7199 55.2611C12.6077 55.4856 12.5703 55.7475 12.8696 55.972C13.1315 56.159 13.356 56.1216 13.5056 55.9345C13.6552 55.7101 13.5804 55.5604 13.2437 55.1115C12.6825 54.3633 12.6825 53.9143 13.0192 53.5028C13.356 53.0165 13.9919 52.8668 14.7402 53.428C15.3762 53.9143 15.5258 54.5129 15.1517 55.1115L14.5531 54.7374Z" fill="black"/>
<path d="M9.0162 49.7244C9.53994 49.3877 10.2134 49.2754 10.8493 49.9862C11.5976 50.8093 11.2983 51.6698 10.5501 52.3805C9.80184 53.054 8.82911 53.2411 8.11828 52.4928C7.44491 51.782 7.66935 51.0712 8.04347 50.697L8.52986 51.2208C8.38018 51.4827 8.23056 51.7446 8.56727 52.1187C8.97879 52.5676 9.53994 52.3057 10.0263 51.8568C10.5127 51.4079 10.8493 50.8467 10.4004 50.3977C10.0637 50.0611 9.72703 50.1733 9.50254 50.2855L9.0162 49.7244Z" fill="black"/>
<path d="M6.73407 47.1431L8.00605 46.3574L8.38017 46.956L5.34984 48.864L4.5642 47.6295C4.19008 47.0683 4.22749 46.4697 4.78867 46.133C5.2002 45.8711 5.5369 45.9833 5.7988 46.1704C5.72394 45.7963 5.91102 45.5344 6.28514 45.3099L6.35995 45.2725C6.62185 45.1228 6.8837 44.9358 7.03338 44.7861L7.4075 45.3847C7.29522 45.497 7.10819 45.6466 6.73407 45.8711L6.65926 45.9085C6.32255 46.133 6.28514 46.32 6.50958 46.7315L6.73407 47.1431ZM6.24774 47.4424L5.94843 46.9934C5.76134 46.6941 5.5369 46.5071 5.2002 46.7315C4.9009 46.9186 4.93831 47.1805 5.08796 47.4424L5.42466 48.0036L6.24774 47.4424Z" fill="black"/>
<path d="M3.06777 40.2219C4.04047 39.8478 4.97576 40.0349 5.38729 41.0824C5.7614 42.1299 5.16282 42.8781 4.19012 43.2149C3.36706 43.5141 2.31954 43.4019 1.90801 42.3169C1.53389 41.3443 2.16989 40.5586 3.06777 40.2219ZM3.92824 42.5414C4.60165 42.2795 5.01317 41.8306 4.82611 41.3069C4.60165 40.7082 4.04047 40.7082 3.32965 40.9701C2.69365 41.1946 2.24471 41.6062 2.46919 42.2047C2.69365 42.7285 3.29224 42.7659 3.92824 42.5414Z" fill="black"/>
<path d="M0.598561 37.7527L0.486328 37.0419L3.44185 36.5181L3.17996 34.9468L3.77855 34.9094L4.19008 37.1167L0.598561 37.7527Z" fill="black"/>
<path d="M0.71082 28.2127L0.598584 29.1854L0 29.1105L0.299293 26.4543L0.897879 26.5292L0.785644 27.4644L3.74116 27.8011L3.66634 28.5494L0.71082 28.2127Z" fill="black"/>
<path d="M3.51672 21.0297C4.48943 21.329 5.16283 22.0399 4.82613 23.1248C4.48942 24.1723 3.55413 24.3968 2.58143 24.0975C1.72096 23.8356 0.972732 23.0874 1.30944 22.0025C1.60873 20.9923 2.58143 20.7679 3.51672 21.0297ZM2.8059 23.3867C3.47931 23.6111 4.11531 23.4989 4.30237 22.9377C4.48943 22.3392 4.04048 21.9651 3.32966 21.7406C2.69367 21.5535 2.05767 21.5909 1.87061 22.1895C1.68355 22.7881 2.13249 23.1996 2.8059 23.3867Z" fill="black"/>
<path d="M3.10516 17.5503L3.74117 16.3906C4.07787 15.792 4.63904 15.4553 5.27504 15.792C5.94845 16.1287 6.02327 16.8022 5.64915 17.5129L5.38727 17.9619L6.62188 18.6353L6.24776 19.2713L3.10516 17.5503ZM4.90092 17.7L5.12539 17.2885C5.31245 16.9518 5.31245 16.6525 4.93833 16.4654C4.63904 16.2784 4.37716 16.428 4.1901 16.7647L3.96563 17.2137L4.90092 17.7Z" fill="black"/>
<path d="M10.6249 10.4048L11.0364 10.8163L10.1012 11.789L9.68964 11.3775L10.6249 10.4048Z" fill="black"/>
</g>
<defs>
<clipPath id="clip0_105_2435">
<rect width="63" height="63" fill="white"/>
</clipPath>
</defs>
</svg>
