<svg width="15" height="9" viewBox="0 0 15 9" fill="none" xmlns="http://www.w3.org/2000/svg">
<path d="M14.7125 1.708C14.8985 1.52198 15 1.28522 15 1.00619C15 0.448131 14.5603 -8.58307e-06 14.0023 -8.58307e-06C13.7232 -8.58307e-06 13.4696 0.118369 13.2751 0.312844L7.49154 6.23167L1.72492 0.312844C1.53044 0.118369 1.26832 -8.58307e-06 0.997745 -8.58307e-06C0.439684 -8.58307e-06 0 0.448131 0 1.00619C0 1.28522 0.101466 1.52198 0.287486 1.708L6.71364 8.28635C6.93348 8.5231 7.20406 8.63302 7.5 8.64148C7.79594 8.64148 8.0496 8.5231 8.2779 8.28635L14.7125 1.708Z" fill="#020202"/>
</svg>
