<svg width="32" height="32" viewBox="0 0 32 32" fill="none" xmlns="http://www.w3.org/2000/svg">
<path fill-rule="evenodd" clip-rule="evenodd" d="M12.0813 13.5629C11.616 6.22094 15.0436 -4.24768 17.8353 1.81394C18.8796 4.08135 21.2842 8.84724 23.8454 13.9234L23.8455 13.9236L23.8456 13.9238C27.1399 20.453 30.6931 27.4955 31.9436 30.3945C32.1963 30.9804 31.548 31.8198 30.9105 31.8459C27.7146 31.9769 20.381 32.1513 20.0525 31.759C19.7861 31.441 16.8565 27.1867 14.62 22.2452C14.2957 22.4035 13.9353 22.5001 13.5544 22.5195C14.221 25.785 13.9119 29.07 12.8224 31.4101C12.6964 31.6807 12.4194 31.8437 12.121 31.8437H0.810861C0.207117 31.8437 -0.184287 31.2068 0.0884502 30.6681L8.1327 14.7815C8.36757 14.3177 8.974 14.1925 9.34712 14.5545C10.2981 15.4773 11.0892 16.5216 11.7306 17.6376C12.0217 17.4132 12.3595 17.2457 12.727 17.1519C12.3854 15.9151 12.1536 14.7027 12.0813 13.5629Z" fill="white"/>
</svg>
